<?xml version="1.0" standalone="no"?>
<!DOCTYPE svg PUBLIC "-//W3C//DTD SVG 20010904//EN"
 "http://www.w3.org/TR/2001/REC-SVG-20010904/DTD/svg10.dtd">
<svg version="1.0" xmlns="http://www.w3.org/2000/svg"
 width="214.000000pt" height="214.000000pt" viewBox="0 0 214.000000 214.000000"
 preserveAspectRatio="xMidYMid meet">
<metadata>
Created by potrace 1.16, written by Peter Selinger 2001-2019
</metadata>
<g transform="translate(0.000000,214.000000) scale(0.100000,-0.100000)"
fill="#d45500" stroke="none">
<path d="M1473 1994 c-15 -6 -59 -14 -98 -18 -38 -4 -101 -17 -140 -30 -69
-23 -92 -27 -330 -64 -182 -28 -225 -64 -225 -184 0 -56 16 -67 85 -62 l40 3
-50 -15 c-83 -25 -95 -33 -111 -69 -15 -37 -14 -67 7 -205 18 -114 14 -223
-11 -315 -20 -70 -23 -113 -27 -345 -5 -244 -7 -270 -28 -326 -67 -179 -30
-238 152 -243 51 -1 138 3 194 9 82 8 112 16 161 42 62 33 78 55 78 109 0 17
7 53 17 81 14 43 15 79 10 239 -4 116 -11 197 -18 211 -7 12 -13 47 -15 78 -2
63 -12 137 -24 194 -5 21 -6 53 -3 70 3 17 -2 80 -11 139 -9 60 -14 118 -11
130 6 22 -34 143 -60 184 -17 26 -5 33 58 33 48 0 211 25 227 35 10 6 6 -7
-27 -82 -8 -18 -16 -47 -18 -65 -2 -18 -8 -67 -14 -108 -7 -47 -9 -185 -6
-366 4 -247 2 -300 -11 -345 -21 -68 -23 -513 -4 -550 12 -21 14 -22 164 -15
83 4 230 8 326 9 299 5 319 22 285 240 -9 56 -23 165 -31 242 -8 77 -19 154
-24 171 -6 17 -13 78 -15 135 -5 127 -6 133 -40 314 -8 44 -15 100 -15 125 1
68 -8 161 -19 190 -5 14 -15 49 -21 78 -11 49 -17 57 -66 89 -54 36 -54 36
-54 87 0 29 -5 57 -11 63 -5 5 -18 25 -27 44 -9 19 -28 39 -42 46 -56 26 -152
35 -197 17z"/>
<path d="M216 1493 c-4 -4 -28 -10 -54 -13 -72 -8 -73 -12 -71 -315 1 -180 -3
-275 -11 -309 -10 -39 -10 -64 0 -131 13 -82 11 -133 -10 -315 -16 -136 -16
-159 0 -213 l13 -49 166 7 c173 8 206 16 243 59 16 19 18 34 13 136 -11 204
-35 483 -50 560 -8 44 -17 170 -20 305 -6 279 -2 271 -131 280 -44 3 -84 2
-88 -2z"/>
</g>
</svg>
